<svg width="48" height="48" viewBox="0 0 48 48" fill="none" xmlns="http://www.w3.org/2000/svg">
<g clip-path="url(#clip0_21_45)">
<path d="M45.75 12H45V7.5C45 3.3 35.7 0 24 0C12.3 0 3 3.3 3 7.5V12H2.25C1.00781 12 0 13.0069 0 14.25V21.75C0 22.9922 1.00781 24 2.25 24H3V39C3 40.6566 4.34344 42 6 42V45C6 46.6566 7.34344 48 9 48H12C13.6566 48 15 46.6566 15 45V42H33V45C33 46.6566 34.3434 48 36 48H39C40.6566 48 42 46.6566 42 45V42H42.6C44.1 42 45 40.8 45 39.6V24H45.75C46.9922 24 48 22.9922 48 21.75V14.25C48 13.0069 46.9922 12 45.75 12ZM10.5 37.5C8.84344 37.5 7.5 36.1566 7.5 34.5C7.5 32.8434 8.84344 31.5 10.5 31.5C12.1566 31.5 13.5 32.8434 13.5 34.5C13.5 36.1566 12.1566 37.5 10.5 37.5ZM12 27C10.3434 27 9 25.6566 9 24V12C9 10.3434 10.3434 9 12 9H36C37.6566 9 39 10.3434 39 12V24C39 25.6566 37.6566 27 36 27H12ZM37.5 37.5C35.8434 37.5 34.5 36.1566 34.5 34.5C34.5 32.8434 35.8434 31.5 37.5 31.5C39.1566 31.5 40.5 32.8434 40.5 34.5C40.5 36.1566 39.1566 37.5 37.5 37.5Z" fill="white"/>
</g>
<defs>
<clipPath id="clip0_21_45">
<rect width="48" height="48" fill="white"/>
</clipPath>
</defs>
</svg>
