<svg width="48" height="48" viewBox="0 0 48 48" fill="none" xmlns="http://www.w3.org/2000/svg">
    <path d="M31.5 19.5V12C31.5 11.6022 31.342 11.2206 31.0607 10.9393C30.7794 10.658 30.3978 10.5 30 10.5H3C2.60218 10.5 2.22064 10.658 1.93934 10.9393C1.65804 11.2206 1.5 11.6022 1.5 12V36C1.5 36.3978 1.65804 36.7794 1.93934 37.0607C2.22064 37.342 2.60218 37.5 3 37.5H30C30.3978 37.5 30.7794 37.342 31.0607 37.0607C31.342 36.7794 31.5 36.3978 31.5 36V28.5L46.5 37.5V10.5L31.5 19.5Z"
          fill="white"/>
</svg>
