<svg width="48" height="48" viewBox="0 0 48 48" fill="none" xmlns="http://www.w3.org/2000/svg">
    <g clip-path="url(#clip0_21_33)">
        <path d="M0 7.5C0 3.35625 3.35625 0 7.5 0H40.5C44.6438 0 48 3.35625 48 7.5V34.5C48 36.9563 46.8187 39.1312 45 40.5V45C45 46.6594 43.6594 48 42 48H39C37.3406 48 36 46.6594 36 45V42H12V45C12 46.6594 10.6594 48 9 48H6C4.34062 48 3 46.6594 3 45V40.5C1.18125 39.1312 0 36.9563 0 34.5V7.5ZM12.1781 14.2687L10.5 21H37.5L35.8219 14.2687C35.4844 12.9375 34.2844 12 32.9062 12H15.0938C13.7156 12 12.5156 12.9375 12.1875 14.2687H12.1781ZM12 30C12 28.3406 10.6594 27 9 27C7.34062 27 6 28.3406 6 30C6 31.6594 7.34062 33 9 33C10.6594 33 12 31.6594 12 30ZM39 33C40.6594 33 42 31.6594 42 30C42 28.3406 40.6594 27 39 27C37.3406 27 36 28.3406 36 30C36 31.6594 37.3406 33 39 33Z"
              fill="white"/>
    </g>
    <defs>
        <clipPath id="clip0_21_33">
            <rect width="48" height="48" fill="white"/>
        </clipPath>
    </defs>
</svg>
