<svg width="48" height="48" viewBox="0 0 48 48" fill="none" xmlns="http://www.w3.org/2000/svg">
    <path d="M41.544 20.31L38.808 12.102C38.4111 10.907 37.6477 9.8674 36.6262 9.13102C35.6048 8.39463 34.3772 7.99888 33.118 8H14.882C13.6228 7.99888 12.3952 8.39463 11.3738 9.13102C10.3523 9.8674 9.5889 10.907 9.192 12.102L6.456 20.31C5.72844 20.6144 5.10712 21.1271 4.67013 21.7837C4.23315 22.4402 4 23.2113 4 24V34C4 35.476 4.808 36.752 6 37.446V42C6 42.5304 6.21071 43.0391 6.58579 43.4142C6.96086 43.7893 7.46957 44 8 44H10C10.5304 44 11.0391 43.7893 11.4142 43.4142C11.7893 43.0391 12 42.5304 12 42V38H36V42C36 42.5304 36.2107 43.0391 36.5858 43.4142C36.9609 43.7893 37.4696 44 38 44H40C40.5304 44 41.0391 43.7893 41.4142 43.4142C41.7893 43.0391 42 42.5304 42 42V37.446C42.6068 37.098 43.1111 36.5963 43.4623 35.9913C43.8134 35.3863 43.9989 34.6995 44 34V24C44 23.2113 43.7669 22.4402 43.3299 21.7837C42.8929 21.1271 42.2716 20.6144 41.544 20.31ZM14.882 12H33.116C33.978 12 34.742 12.548 35.014 13.368L37.226 20H10.774L12.984 13.368C13.1167 12.9696 13.3714 12.6231 13.7121 12.3775C14.0528 12.132 14.4621 11.9999 14.882 12V12ZM11 32C10.6059 31.9999 10.2157 31.9221 9.85164 31.7712C9.4876 31.6202 9.15684 31.3991 8.87827 31.1203C8.59969 30.8416 8.37875 30.5107 8.22806 30.1465C8.07736 29.7824 7.99987 29.3921 8 28.998C8.00013 28.6039 8.07788 28.2137 8.22882 27.8496C8.37976 27.4856 8.60092 27.1548 8.87968 26.8763C9.15844 26.5977 9.48934 26.3768 9.85349 26.2261C10.2176 26.0754 10.6079 25.9979 11.002 25.998C11.7979 25.9983 12.5611 26.3147 13.1237 26.8777C13.6863 27.4407 14.0023 28.2041 14.002 29C14.0017 29.7959 13.6853 30.5591 13.1223 31.1217C12.5593 31.6843 11.7959 32.0003 11 32V32ZM37 32C36.6059 31.9999 36.2157 31.9221 35.8516 31.7712C35.4876 31.6202 35.1568 31.3991 34.8783 31.1203C34.5997 30.8416 34.3787 30.5107 34.2281 30.1465C34.0774 29.7824 33.9999 29.3921 34 28.998C34.0001 28.6039 34.0779 28.2137 34.2288 27.8496C34.3798 27.4856 34.6009 27.1548 34.8797 26.8763C35.1584 26.5977 35.4893 26.3768 35.8535 26.2261C36.2176 26.0754 36.6079 25.9979 37.002 25.998C37.7979 25.9983 38.5611 26.3147 39.1237 26.8777C39.6863 27.4407 40.0023 28.2041 40.002 29C40.0017 29.7959 39.6853 30.5591 39.1223 31.1217C38.5593 31.6843 37.7959 32.0003 37 32V32Z"
          fill="white"/>
</svg>
